<?xml version="1.0" encoding="utf-8"?>
<!-- Generator: Adobe Illustrator 16.0.0, SVG Export Plug-In . SVG Version: 6.00 Build 0)  -->
<!DOCTYPE svg PUBLIC "-//W3C//DTD SVG 1.1//EN" "http://www.w3.org/Graphics/SVG/1.1/DTD/svg11.dtd">
<svg version="1.1" id="Layer_1" xmlns="http://www.w3.org/2000/svg" xmlns:xlink="http://www.w3.org/1999/xlink" x="0px" y="0px"
	 width="100px" height="100px" viewBox="0 0 100 100" enable-background="new 0 0 100 100" xml:space="preserve">
<g>
	<path fill="#999999" d="M73.445,41.038C62.043,16.502,56.117,7.186,37.486,7.571c-6.635,0.137-5.041-4.805-10.1-2.93
		c-5.055,1.876-0.717,4.62-5.889,8.863C6.984,25.416,8.322,36.437,15.053,62.703c2.838,11.061-6.836,11.605-3.008,22.33
		c2.793,7.818,23.393,11.092,45.127,3.027c21.734-8.063,35.453-24.07,32.66-31.89C86.002,45.447,78.25,51.367,73.445,41.038z
		 M54.812,81.453c-19.41,7.203-35.362,2.965-36.037,1.084c-1.162-3.248,6.266-14.082,28.457-22.316
		c22.193-8.234,34.576-5.18,35.871-1.553C83.869,60.811,74.225,74.252,54.812,81.453z M48.574,63.98
		c-10.148,3.766-17.201,8.071-21.764,11.951c3.211,2.918,9.23,3.629,15.23,1.403c7.637-2.834,12.326-9.338,10.472-14.526
		c-0.021-0.063-0.056-0.119-0.078-0.181C51.182,63.041,49.896,63.49,48.574,63.98z"/>
</g>
</svg>
