<?xml version="1.0" encoding="utf-8"?>
<!-- Generator: Adobe Illustrator 16.0.0, SVG Export Plug-In . SVG Version: 6.00 Build 0)  -->
<!DOCTYPE svg PUBLIC "-//W3C//DTD SVG 1.1//EN" "http://www.w3.org/Graphics/SVG/1.1/DTD/svg11.dtd">
<svg version="1.1" id="Layer_1" xmlns="http://www.w3.org/2000/svg" xmlns:xlink="http://www.w3.org/1999/xlink" x="0px" y="0px"
	 width="100px" height="100px" viewBox="0 0 100 100" enable-background="new 0 0 100 100" xml:space="preserve">
<polygon fill="#999999" points="17.702,71.042 9.297,62.645 37.37,62.645 37.37,90.703 28.965,82.305 11.27,100 0,88.736 "/>
<polygon fill="#999999" points="88.743,100 100,88.736 82.305,71.042 90.703,62.645 62.648,62.645 62.645,90.703 71.042,82.305 "/>
<polygon fill="#999999" points="100,11.263 88.743,0 71.042,17.708 62.645,9.31 62.645,37.357 90.71,37.37 82.298,28.958 "/>
<polygon fill="#999999" points="9.303,37.37 37.357,37.37 37.376,9.297 28.971,17.708 11.27,0 0,11.276 17.702,28.958 "/>
<path fill="#999999" d="M50,37.787c-6.745,0-12.213,5.469-12.213,12.213c0,6.758,5.469,12.227,12.213,12.227
	c6.745,0,12.221-5.469,12.221-12.227C62.221,43.255,56.745,37.787,50,37.787z"/>
</svg>
